<svg width="256" height="120" viewBox="0 0 256 120" fill="none" xmlns="http://www.w3.org/2000/svg">
<rect width="256" height="120" fill="white"/>
<g clip-path="url(#clip0_309_12662)">
<path fill-rule="evenodd" clip-rule="evenodd" d="M93.0968 61.9623C93.8938 61.9122 94.8814 61.9122 95.4228 61.9122C99.1524 61.9122 101.158 62.5138 102.752 63.8171C103.563 64.4974 104.206 65.3557 104.631 66.3252C105.056 67.2946 105.252 68.3491 105.203 69.4066C105.241 70.4696 105.037 71.5274 104.606 72.5C104.175 73.4726 103.529 74.3346 102.717 75.0211C101.253 76.2242 99.2727 76.9009 95.4528 76.9009C93.3825 76.9009 93.0968 76.6653 93.0968 75.0211V61.9623ZM89.5576 74.8155C89.5576 76.5651 89.2368 76.931 86.5298 76.931V77.6378H96.4404C105.78 77.6378 109.063 72.8805 109.063 69.0406C109.064 67.9648 108.817 66.9033 108.341 65.9383C107.866 64.9734 107.175 64.1309 106.321 63.4762C104.376 61.8821 100.902 61.1753 96.0895 61.1753C94.8763 61.1753 93.2522 61.1753 91.5327 61.2254C90.1943 61.2756 87.4522 61.3808 86.5298 61.3808V62.0876C88.951 62.0626 89.5576 62.4787 89.5576 64.3836V74.8155Z" fill="black"/>
<path d="M111.8 62.0927C114.001 62.0676 114.412 62.6391 114.412 64.0527V74.6852C114.412 76.1741 114.317 76.9862 111.8 76.931V77.6378H120.693V76.931C118.397 76.9811 117.951 76.4598 117.951 74.4997V64.3435C117.951 62.4887 118.558 62.0977 120.693 62.0977V61.3909H111.8V62.0927Z" fill="black"/>
<path d="M124.062 77.8734H124.829C124.944 77.7693 125.08 77.6902 125.227 77.641C125.375 77.5918 125.531 77.5737 125.686 77.5877C126.578 77.5877 127.566 78.0589 129.957 78.0589C134.037 78.0589 136.81 76.2292 136.81 73.5372C136.81 68.4942 126.739 67.4515 126.739 63.9524C126.739 62.8045 127.821 61.8119 129.862 61.8119C130.956 61.8019 132.029 62.1103 132.952 62.6995C133.874 63.2887 134.604 64.1333 135.055 65.1305H136.013L135.311 61.08H134.514C134.396 61.1928 134.255 61.279 134.101 61.3326C133.947 61.3862 133.784 61.4061 133.621 61.3908C133.053 61.3669 132.488 61.2964 131.932 61.1803C131.121 61.0392 130.299 60.9688 129.476 60.9697C126.067 60.9697 123.641 62.5388 123.641 64.7846C123.641 69.3313 133.682 70.765 133.682 74.4245C133.682 75.9935 132.057 77.1165 129.731 77.1165C126.989 77.1165 125.014 75.7579 124.217 73.3567H123.26L124.062 77.8734Z" fill="black"/>
<path d="M136.775 65.4363H137.697C138.178 62.7193 138.81 62.5639 140.69 62.5639H145.246V74.8707C145.246 76.5951 144.735 76.936 141.547 76.936V77.6428H152.48V76.936C149.131 76.936 148.781 76.6503 148.781 74.8707V62.5639H153.337C155.252 62.5639 155.889 62.7193 156.335 65.4363H157.257L156.686 60.9447H155.824C155.633 61.3357 155.378 61.3909 153.753 61.3909H140.274C139.751 61.4063 139.228 61.3812 138.71 61.3157C138.602 61.2974 138.5 61.255 138.412 61.1916C138.323 61.1282 138.25 61.0455 138.198 60.9497H137.336L136.775 65.4363Z" fill="black"/>
<path d="M175.52 77.6379L175.996 73.5373H175.134C174.277 76.0989 173.635 76.4648 170.417 76.4648H166.877C165.248 76.4648 164.998 76.2042 164.998 74.585V69.8327H169.935C171.69 69.8327 172.101 70.0683 172.327 71.9231H173.189V66.6645H172.327C172.136 68.4692 171.785 68.6496 169.935 68.6496H164.998V62.5639H170.607C172.647 62.5639 173.154 62.614 173.79 64.7596L173.951 65.306H174.808L174.522 61.3859H158.235V62.0927C160.406 62.0927 161.453 62.1478 161.453 63.8673V75.1264C161.453 76.5901 160.812 76.931 158.235 76.931V77.6379H175.52Z" fill="black"/>
<path d="M193.932 77.6379L196.389 73.6927H195.431C193.045 76.3596 192.849 76.4598 190.142 76.4598H186.859C185.395 76.4598 185.14 76.2493 185.14 75.1815V64.158C185.14 62.198 185.521 62.0927 188.964 62.0927V61.3859H178.512V62.0927C181.38 62.0426 181.605 62.5639 181.605 64.3385V74.6802C181.605 76.7456 181.064 76.926 178.512 76.926V77.6328H193.932" fill="black"/>
<path d="M212.32 77.6379L214.771 73.6927H213.814C211.422 76.3596 211.232 76.4598 208.525 76.4598H205.241C203.778 76.4598 203.522 76.2493 203.522 75.1815V64.158C203.522 62.198 203.903 62.0927 207.347 62.0927V61.3859H196.89V62.0927C199.757 62.0426 199.983 62.5639 199.983 64.3385V74.6802C199.983 76.7456 199.441 76.926 196.89 76.926V77.6328H212.32" fill="black"/>
<path d="M46.0552 49.3146C46.3008 47.7105 47.6593 46.5976 49.088 46.8332C50.5167 47.0688 51.4792 48.5627 51.2285 50.1668C50.9829 51.771 49.6244 52.8839 48.1957 52.6483C46.767 52.4126 45.8095 50.9188 46.0552 49.3146Z" fill="black"/>
<path d="M52.1609 50.3172C52.4065 48.7131 53.7651 47.6002 55.1937 47.8358C56.6224 48.0714 57.5799 49.5602 57.3393 51.1694C57.0937 52.7786 55.7351 53.8864 54.3065 53.6508C52.8728 53.4202 51.9103 51.9264 52.1609 50.3172Z" fill="black"/>
<path d="M58.2617 51.3249C58.5073 49.7207 59.8658 48.6079 61.2945 48.8435C62.7232 49.0791 63.6857 50.573 63.4401 52.1771C63.1944 53.7812 61.8359 54.8941 60.4072 54.6585C58.9735 54.4229 58.0161 52.929 58.2617 51.3249Z" fill="black"/>
<path d="M54.3015 56.7539C54.5471 55.1497 55.9056 54.0368 57.3343 54.2724C58.763 54.508 59.7205 56.0019 59.4749 57.6061C59.2292 59.2152 57.8707 60.3231 56.442 60.0875C55.0133 59.8519 54.0559 58.358 54.3015 56.7539Z" fill="black"/>
<path d="M48.2058 55.7111C48.4514 54.107 49.8099 52.9941 51.2386 53.2297C52.6673 53.4653 53.6248 54.9592 53.3792 56.5633C53.1335 58.1675 51.775 59.2803 50.3463 59.0447C48.9176 58.8091 47.9602 57.3153 48.2058 55.7111Z" fill="black"/>
<path d="M50.3463 61.9673C50.5919 60.3632 51.9504 59.2503 53.3791 59.4859C54.8078 59.7215 55.7703 61.2154 55.5196 62.8196C55.274 64.4237 53.9155 65.5366 52.4868 65.301C51.0631 65.0654 50.1006 63.5715 50.3463 61.9673Z" fill="black"/>
<path fill-rule="evenodd" clip-rule="evenodd" d="M52.7575 78.3096C53.9456 79.1267 54.3115 79.3773 55.1387 79.8836C55.4946 80.1594 55.7001 79.8736 55.6901 79.7583C57.3293 65.311 113.655 64.2282 64.6532 30.9622C64.5379 30.877 64.4277 30.9873 64.4728 31.1227C64.934 32.5463 65.2548 35.2032 64.563 36.5818C61.846 34.4863 58.8884 32.5112 54.9933 30.0348C54.8228 29.9246 54.6273 30.09 54.7577 30.3356C61.6004 47.1892 4.04666 41.3441 52.7575 78.3096ZM57.8607 36.3411C55.4846 49.1192 16.559 45.0687 50.8275 72.1086C50.8528 72.1249 50.8725 72.1484 50.8841 72.1762C50.8958 72.2039 50.8988 72.2345 50.8927 72.264C50.8877 72.264 50.8827 72.2339 50.9027 72.1487C54.863 56.9795 92.3598 59.1501 58.2266 36.1557C58.0462 36.0504 57.9158 35.8549 57.8607 36.3411ZM53.3992 73.9283C53.9757 74.4145 53.9807 74.3744 54.3967 74.7002C62.1418 60.8094 100.506 61.9022 68.1122 37.2034C68.0489 37.8061 67.9177 38.3997 67.7212 38.9729C92.9463 60.4334 57.3293 60.6289 53.3992 73.9282V73.9283Z" fill="black"/>
</g>
<defs>
<clipPath id="clip0_309_12662">
<rect width="181.771" height="50" fill="white" transform="translate(33 30)"/>
</clipPath>
</defs>
</svg>
